<svg id="visual" viewBox="0 0 900 600" width="900" height="600" xmlns="http://www.w3.org/2000/svg" xmlns:xlink="http://www.w3.org/1999/xlink" version="1.1"><rect x="0" y="0" width="900" height="600" fill="#001220"></rect><defs><linearGradient id="grad1_0" x1="33.3%" y1="100%" x2="100%" y2="0%"><stop offset="20%" stop-color="#001220" stop-opacity="1"></stop><stop offset="80%" stop-color="#001220" stop-opacity="1"></stop></linearGradient></defs><defs><linearGradient id="grad2_0" x1="0%" y1="100%" x2="66.7%" y2="0%"><stop offset="20%" stop-color="#001220" stop-opacity="1"></stop><stop offset="80%" stop-color="#001220" stop-opacity="1"></stop></linearGradient></defs><g transform="translate(900, 600)"><path d="M-432.7 0C-416.8 -41 -400.9 -82 -386.1 -125.5C-371.3 -169 -357.6 -215 -323.6 -235.1C-289.6 -255.3 -235.4 -249.5 -204 -280.7C-172.5 -311.9 -163.9 -380 -133.7 -411.5C-103.5 -443 -51.8 -437.8 0 -432.7L0 0Z" fill="#edaf88"></path></g><g transform="translate(0, 0)"><path d="M432.7 0C404.2 39.4 375.7 78.7 355.7 115.6C335.6 152.4 324 186.8 308.2 223.9C292.4 261.1 272.5 301.2 243.3 334.9C214.2 368.7 175.8 396.2 133.7 411.5C91.6 426.7 45.8 429.7 0 432.7L0 0Z" fill="#edaf88"></path></g></svg>