<svg id="visual" viewBox="0 0 900 600" width="900" height="600" xmlns="http://www.w3.org/2000/svg" xmlns:xlink="http://www.w3.org/1999/xlink" version="1.1"><rect x="0" y="0" width="900" height="600" fill="#001220"></rect><defs><linearGradient id="grad1_0" x1="33.3%" y1="0%" x2="100%" y2="100%"><stop offset="20%" stop-color="#001220" stop-opacity="1"></stop><stop offset="80%" stop-color="#001220" stop-opacity="1"></stop></linearGradient></defs><defs><linearGradient id="grad2_0" x1="0%" y1="0%" x2="66.7%" y2="100%"><stop offset="20%" stop-color="#001220" stop-opacity="1"></stop><stop offset="80%" stop-color="#001220" stop-opacity="1"></stop></linearGradient></defs><g transform="translate(900, 0)"><path d="M0 405.6C-48 388.5 -96 371.4 -147 354.8C-197.9 338.1 -251.8 321.9 -286.8 286.8C-321.9 251.8 -338.1 197.9 -354.8 147C-371.4 96 -388.5 48 -405.6 0L0 0Z" fill="#fa3c3c"></path></g><g transform="translate(0, 600)"><path d="M0 -405.6C45.2 -380.8 90.4 -356 140.8 -340C191.3 -324 247 -316.8 286.8 -286.8C326.6 -256.8 350.6 -203.9 367.7 -152.3C384.9 -100.7 395.2 -50.3 405.6 0L0 0Z" fill="#fa3c3c"></path></g></svg>